:FULLY-SPECIFIED
:FORCE-ALL-JOINTS-BE-3DOF
:DEGREES
1937
root 5.76734 13.7093 28.1688 -31.1669 72.7759 -35.5628
lfemur -62.2693 13.0448 -8.98973
ltibia 67.8037 -0 0
lfoot -5.20102 0.377764 -0.110093
ltoes -32.5449 0 0
rfemur -4.35133 -5.7918 18.5522
rtibia 61.1791 -0 0
rfoot -25.8044 -30.0372 0.0726238
rtoes -27.0999 0 0
lowerback 13.0466 4.3215 4.69526
upperback -0.779455 6.88325 3.69309
thorax -8.07615 3.26328 -0.0166913
lowerneck -0.472306 14.8383 7.00593
upperneck 5.23465 20.213 -7.35862
head 3.43055 10.0618 -2.71072
lclavicle 0 0 0
lhumerus 64.8126 -26.5991 55.9494
lradius 45.0658 -0 0
lwrist -1.27483 0 0
lhand -14.8685 34.8974 -0.0394605
lfingers 0 0 0
lthumb 11.2911 64.5632 -0.0397335
rclavicle 0 0 0
rhumerus -44.4584 24.7657 -78.1222
rradius 94.5064 -0 0
rwrist -39.3584 0 0
rhand -12.7732 -43.1951 0.0389238
rfingers 0 0 0
rthumb 13.3092 -72.7124 0.0472415
1938
root 5.6396 13.7191 28.2132 -33.9497 73.9975 -38.407
lfemur -62.3991 12.9833 -9.92647
ltibia 67.5091 -0 0
lfoot -5.38132 0.756797 -0.122302
ltoes -32.479 0 0
rfemur -4.84046 -5.80045 18.9483
rtibia 61.2898 -0 0
rfoot -26.0452 -30.2245 0.080674
rtoes -27.0793 0 0
lowerback 13.1275 4.17396 4.76445
upperback -0.758215 6.71022 3.73008
thorax -8.10162 3.17869 0.0153375
lowerneck -0.51372 14.7735 6.96076
upperneck 5.12337 20.1208 -7.41496
head 3.39406 10.0147 -2.72922
lclavicle 0 0 0
lhumerus 65.3697 -27.2743 54.8641
lradius 47.5689 -0 0
lwrist -0.688285 0 0
lhand -15.0228 35.0562 -0.0438336
lfingers 0 0 0
lthumb 11.1423 64.729 -0.0441369
rclavicle 0 0 0
rhumerus -44.1919 25.5304 -78.1152
rradius 94.8466 -0 0
rwrist -39.8391 0 0
rhand -12.4908 -43.1095 0.0432383
rfingers 0 0 0
rthumb 13.5811 -72.6044 0.0524779
1939
root 5.50912 13.7292 28.2596 -37.3152 75.2176 -41.8359
lfemur -62.5325 12.9173 -10.8976
ltibia 67.2036 -0 0
lfoot -5.5684 1.14995 -0.133704
ltoes -32.4107 0 0
rfemur -5.34781 -5.80587 19.3592
rtibia 61.4046 -0 0
rfoot -26.295 -30.4188 0.0881916
rtoes -27.058 0 0
lowerback 13.2111 4.02083 4.83597
upperback -0.736313 6.53074 3.76837
thorax -8.12809 3.09097 0.0485932
lowerneck -0.556603 14.7062 6.91397
upperneck 5.00813 20.025 -7.47316
head 3.35623 9.96583 -2.74838
lclavicle 0 0 0
lhumerus 65.9664 -27.9644 53.7238
lradius 50.1649 -0 0
lwrist -0.0799487 0 0
lhand -15.1828 35.2211 -0.0479171
lfingers 0 0 0
lthumb 10.9879 64.901 -0.0482487
rclavicle 0 0 0
rhumerus -43.9134 26.3234 -78.1037
rradius 95.1994 -0 0
rwrist -40.3377 0 0
rhand -12.1979 -43.0207 0.0472673
rfingers 0 0 0
rthumb 13.863 -72.4925 0.0573678
1940
root 5.37635 13.7395 28.3078 -41.4068 76.4126 -45.9928
lfemur -62.6689 12.8469 -11.8988
ltibia 66.8884 -0 0
lfoot -5.76144 1.55551 -0.144119
ltoes -32.3402 0 0
rfemur -5.87116 -5.80766 19.783
rtibia 61.523 -0 0
rfoot -26.5526 -30.6192 0.0950582
rtoes -27.036 0 0
lowerback 13.2972 3.86277 4.9095
upperback -0.713855 6.3456 3.80777
thorax -8.15545 3.0005 0.0829348
lowerneck -0.600763 14.6368 6.86579
upperneck 4.88945 19.9261 -7.53295
head 3.31724 9.9154 -2.76811
lclavicle 0 0 0
lhumerus 66.6021 -28.665 52.5313
lradius 52.8426 -0 0
lwrist 0.547527 0 0
lhand -15.3478 35.391 -0.0516469
lfingers 0 0 0
lthumb 10.8286 65.0784 -0.0520044
rclavicle 0 0 0
rhumerus -43.624 27.1414 -78.0872
rradius 95.5633 -0 0
rwrist -40.852 0 0
rhand -11.8958 -42.9291 0.0509474
rfingers 0 0 0
rthumb 14.1539 -72.377 0.0618343
1941
root 5.24172 13.75 28.3576 -46.3981 77.5527 -51.0509
lfemur -62.8075 12.7723 -12.9259
ltibia 66.565 -0 0
lfoot -5.95963 1.97176 -0.153387
ltoes -32.2678 0 0
rfemur -6.40826 -5.8055 20.218
rtibia 61.6445 -0 0
rfoot -26.8171 -30.8249 0.101168
rtoes -27.0133 0 0
lowerback 13.3854 3.70045 4.9847
upperback -0.690949 6.15559 3.84812
thorax -8.18358 2.90767 0.118221
lowerneck -0.646005 14.5655 6.81641
upperneck 4.76784 19.8245 -7.59403
head 3.27725 9.86363 -2.78831
lclavicle 0 0 0
lhumerus 67.2762 -29.3717 51.2899
lradius 55.5907 -0 0
lwrist 1.19149 0 0
lhand -15.5173 35.5655 -0.0549655
lfingers 0 0 0
lthumb 10.6652 65.2605 -0.0553459
rclavicle 0 0 0
rhumerus -43.3245 27.9808 -78.0653
rradius 95.9368 -0 0
rwrist -41.3798 0 0
rhand -11.5858 -42.8351 0.0542218
rfingers 0 0 0
rthumb 14.4524 -72.2584 0.0658084
1942
root 5.1057 13.7607 28.4087 -52.4811 78.5999 -57.2021
lfemur -62.9475 12.6936 -13.9746
ltibia 66.2346 -0 0
lfoot -6.16214 2.39699 -0.161368
ltoes -32.1939 0 0
rfemur -6.95687 -5.7991 20.6623
rtibia 61.7686 -0 0
rfoot -27.0872 -31.0351 0.106428
rtoes -26.9903 0 0
lowerback 13.4752 3.53452 5.06124
upperback -0.667698 5.96147 3.88924
thorax -8.21237 2.81287 0.15431
lowerneck -0.69214 14.4927 6.76604
upperneck 4.64382 19.7206 -7.65616
head 3.23642 9.81073 -2.80891
lclavicle 0 0 0
lhumerus 67.9878 -30.0801 50.003
lradius 58.3978 -0 0
lwrist 1.8493 0 0
lhand -15.6903 35.7438 -0.0578228
lfingers 0 0 0
lthumb 10.4982 65.4465 -0.0582229
rclavicle 0 0 0
rhumerus -43.0157 28.838 -78.0376
rradius 96.3183 -0 0
rwrist -41.919 0 0
rhand -11.269 -42.739 0.0570411
rfingers 0 0 0
rthumb 14.7574 -72.1373 0.0692301
1943
root 4.96871 13.7715 28.461 -59.8286 79.507 -64.6186
lfemur -63.0884 12.611 -15.0405
ltibia 65.8986 -0 0
lfoot -6.36816 2.82947 -0.167942
ltoes -32.1188 0 0
rfemur -7.51473 -5.78825 21.114
rtibia 61.8949 -0 0
rfoot -27.362 -31.2489 0.110762
rtoes -26.9668 0 0
lowerback 13.5663 3.36565 5.13881
upperback -0.644204 5.76403 3.93096
thorax -8.2417 2.71647 0.191058
lowerneck -0.738975 14.4185 6.7149
upperneck 4.51789 19.6148 -7.71905
head 3.19492 9.75692 -2.82981
lclavicle 0 0 0
lhumerus 68.7356 -30.786 48.6744
lradius 61.2526 -0 0
lwrist 2.51829 0 0
lhand -15.8663 35.925 -0.0601764
lfingers 0 0 0
lthumb 10.3284 65.6357 -0.0605929
rclavicle 0 0 0
rhumerus -42.6985 29.7098 -78.0036
rradius 96.7063 -0 0
rwrist -42.4673 0 0
rhand -10.9469 -42.6412 0.0593636
rfingers 0 0 0
rthumb 15.0675 -72.0141 0.0720488
1944
root 4.83121 13.7823 28.5142 -68.5123 80.2181 -73.3723
lfemur -63.2294 12.5248 -16.1195
ltibia 65.5583 -0 0
lfoot -6.57684 3.2675 -0.173015
ltoes -32.0427 0 0
rfemur -8.07959 -5.7728 21.5714
rtibia 62.0227 -0 0
rfoot -27.6403 -31.4654 0.114106
rtoes -26.943 0 0
lowerback 13.6583 3.1945 5.21707
upperback -0.620565 5.56406 3.97312
thorax -8.27148 2.61886 0.228323
lowerneck -0.786323 14.3434 6.66318
upperneck 4.39056 19.5075 -7.78246
head 3.15292 9.70241 -2.85094
lclavicle 0 0 0
lhumerus 69.5179 -31.4853 47.3078
lradius 64.1439 -0 0
lwrist 3.19582 0 0
lhand -16.0446 36.1086 -0.0619925
lfingers 0 0 0
lthumb 10.1564 65.8273 -0.0624215
rclavicle 0 0 0
rhumerus -42.3737 30.5924 -77.9633
rradius 97.0993 -0 0
rwrist -43.0226 0 0
rhand -10.6207 -42.5422 0.0611556
rfingers 0 0 0
rthumb 15.3816 -71.8893 0.0742238
